# xmcd
#
# Track frame offsets:
#	150
#	15893
#	29789
#	44950
#	60792
#	76265
#	91814
#	107856
#	120565
#	135735
#	148350
#	160961
#	176934
#
# Disc length: 2471 seconds
# Revision: 0
# Processed by: cddbd v1.5.2PL0 Copyright (c) Steve Scherf et al.
# Submitted via: dBpowerAMP V12.0
#
DISCID=b309a50d
DTITLE=Toby Keith - Should've Been A Cowboy - 25th Anniversary Edition
DYEAR=2018
DGENRE=Country
TTITLE0=Should've Been A Cowboy
TTITLE1=He Ain't Worth Missing
TTITLE2=Under The Fall
TTITLE3=Some Kinda Good Kinda Hold On Me
TTITLE4=Wish I Didn't Know Now
TTITLE5=Ain't No Thang
TTITLE6=Valentine
TTITLE7=A Little Less Talk And A Lot More Action
TTITLE8=Mama Come Quick
TTITLE9=Close But No Guitar
TTITLE10=Tossin' And Turnin'
TTITLE11=I'll Still Call You Baby
TTITLE12=Daddy Mac
EXTD=
EXTT0=
EXTT1=
EXTT2=
EXTT3=
EXTT4=
EXTT5=
EXTT6=
EXTT7=
EXTT8=
EXTT9=
EXTT10=
EXTT11=
EXTT12=
PLAYORDER=
